<?xml version="1.0" encoding="UTF-8"?>
<svg width="30" height="23.223" fill="none" version="1.1" viewBox="0 0 30 23.223" xmlns="http://www.w3.org/2000/svg">
 <g transform="translate(2.1898e-7 -11.765)" clip-path="url(#clip0)">
  <g clip-path="url(#clip1)">
   <path d="m25.413 13.71c-1.942-0.90859-4.0184-1.5689-6.1892-1.9449-0.26661 0.48201-0.57808 1.1303-0.79283 1.6461-2.3077-0.34704-4.5941-0.34704-6.8593 0-0.21471-0.51574-0.53325-1.1641-0.80224-1.6461-2.1732 0.376-4.252 1.0387-6.194 1.9497-3.9169 5.919-4.9788 11.691-4.4478 17.381 2.5979 1.9401 5.1156 3.1186 7.5908 3.8898 0.61114-0.84111 1.1562-1.7352 1.6258-2.6775-0.89428-0.33981-1.7508-0.75915-2.5601-1.246 0.21471-0.15907 0.42473-0.32537 0.62763-0.49649 4.9363 2.3088 10.3 2.3088 15.177 0 0.20529 0.17112 0.41527 0.33742 0.62763 0.49649-0.8117 0.48921-1.6706 0.90855-2.5649 1.2484 0.46955 0.93989 1.0123 1.8364 1.6258 2.6775 2.4776-0.7712 4.9976-1.9497 7.5955-3.8922 0.62294-6.5962-1.0642-12.315-4.4596-17.386zm-15.396 13.887c-1.4818 0-2.697-1.3834-2.697-3.068s1.1893-3.0704 2.697-3.0704c1.5078 0 2.723 1.3833 2.697 3.0704 0.0023 1.6846-1.1892 3.068-2.697 3.068zm9.967 0c-1.4818 0-2.697-1.3834-2.697-3.068s1.1892-3.0704 2.697-3.0704c1.5078 0 2.723 1.3833 2.697 3.0704 0 1.6846-1.1893 3.068-2.697 3.068z" fill="#5865f2" stroke-width=".41124"/>
  </g>
 </g>
 <defs>
  <clipPath id="clip0">
   <rect transform="translate(0 11.765)" width="292" height="56.471" fill="#fff"/>
  </clipPath>
  <clipPath id="clip1">
   <rect transform="translate(0 11.765)" width="292" height="56.471" fill="#fff"/>
  </clipPath>
 </defs>
</svg>
