<?xml version="1.0" encoding="UTF-8" standalone="no"?>
<svg
   version="1.1"
   x="0px"
   y="0px"
   viewBox="0 0 35 35.000843"
   enable-background="new 0 0 100 100"
   xml:space="preserve"
   id="svg10"
   sodipodi:docname="noun_anonymous_638448.svg"
   width="35"
   height="35.000843"
   inkscape:version="1.1 (c4e8f9ed74, 2021-05-24)"
   xmlns:inkscape="http://www.inkscape.org/namespaces/inkscape"
   xmlns:sodipodi="http://sodipodi.sourceforge.net/DTD/sodipodi-0.dtd"
   xmlns="http://www.w3.org/2000/svg"
   xmlns:svg="http://www.w3.org/2000/svg"><defs
     id="defs14" /><sodipodi:namedview
     id="namedview12"
     pagecolor="#ffffff"
     bordercolor="#666666"
     borderopacity="1.0"
     inkscape:pageshadow="2"
     inkscape:pageopacity="0.0"
     inkscape:pagecheckerboard="0"
     showgrid="false"
     inkscape:zoom="6.752"
     inkscape:cx="41.32109"
     inkscape:cy="27.991706"
     inkscape:window-width="1920"
     inkscape:window-height="1023"
     inkscape:window-x="0"
     inkscape:window-y="27"
     inkscape:window-maximized="1"
     inkscape:current-layer="svg10" /><g
     id="g98"
     transform="scale(0.42149377)"><path
       d="M 41.52,0 C 18.625,0 0,18.625 0,41.52 c 0,13.588 6.56,25.672 16.681,33.251 6.931,5.19 15.532,8.269 24.838,8.269 9.305,0 17.905,-3.078 24.835,-8.269 C 76.475,67.193 83.038,55.108 83.038,41.52 83.038,18.625 64.412,0 41.52,0 Z M 65.158,66.383 C 64.955,65.304 64.763,64.545 64.592,64.195 61.172,57.206 55.873,52.952 42.856,52.952 h -1.338 -1.334 c -13.018,0 -18.318,4.254 -21.738,11.243 -0.172,0.351 -0.363,1.109 -0.567,2.188 C 11.301,60.125 7.194,51.293 7.194,41.52 7.194,22.593 22.592,7.195 41.521,7.195 c 18.926,0 34.324,15.398 34.324,34.325 -0.001,9.773 -4.107,18.606 -10.687,24.863 z"
       id="path2" /><path
       d="m 41.539,21.81 c -7.716,0 -13.967,6.24 -13.967,13.957 0,7.696 6.253,13.937 13.967,13.937 7.684,0 13.927,-6.241 13.927,-13.937 C 55.467,28.05 49.223,21.81 41.539,21.81 Z m 0.083,23.624 c -0.961,0 -1.742,-0.78 -1.742,-1.74 0,-0.961 0.781,-1.738 1.742,-1.738 0.96,0 1.731,0.777 1.731,1.738 0,0.96 -0.771,1.74 -1.731,1.74 z m 5.182,-12.219 c -0.189,0.468 -0.423,0.867 -0.701,1.199 -0.279,0.332 -0.59,0.615 -0.929,0.849 -0.34,0.234 -0.66,0.468 -0.962,0.702 -0.303,0.234 -0.569,0.501 -0.804,0.803 -0.233,0.302 -0.381,0.679 -0.44,1.131 l 0.008,0.86 c 0,0.847 -0.679,1.533 -1.526,1.533 -0.847,0 -1.535,-0.686 -1.535,-1.533 l -0.002,-1.018 c 0.045,-0.648 0.169,-1.191 0.373,-1.63 0.204,-0.437 0.441,-0.81 0.713,-1.12 0.271,-0.309 0.558,-0.577 0.86,-0.803 0.302,-0.227 0.581,-0.453 0.838,-0.68 0.256,-0.226 0.463,-0.475 0.621,-0.747 0.159,-0.271 0.23,-0.611 0.215,-1.018 0,-0.694 -0.169,-1.207 -0.508,-1.539 -0.34,-0.333 -0.812,-0.499 -1.415,-0.499 -0.409,0 -0.758,0.08 -1.052,0.239 -0.295,0.158 -0.536,0.369 -0.726,0.633 -0.188,0.265 -0.328,0.574 -0.419,0.928 -0.09,0.354 -0.132,0.733 -0.132,1.14 0,0.921 -0.741,1.676 -1.661,1.676 -0.923,0 -1.669,-0.755 -1.669,-1.676 0.014,-0.816 0.154,-1.559 0.417,-2.238 0.265,-0.679 0.635,-1.269 1.11,-1.765 0.476,-0.499 1.048,-0.887 1.72,-1.166 0.671,-0.28 1.422,-0.419 2.252,-0.419 1.072,0 1.965,0.146 2.681,0.441 0.718,0.295 1.295,0.66 1.732,1.097 0.438,0.438 0.75,0.91 0.939,1.415 0.188,0.507 0.282,0.979 0.282,1.415 0.002,0.726 -0.092,1.322 -0.28,1.79 z"
       id="path4" /></g></svg>
