<?xml version="1.0" encoding="UTF-8"?>
<svg width="35" height="34.998" data-name="Layer 1" version="1.1" viewBox="0 0 35 34.998" xmlns="http://www.w3.org/2000/svg" xmlns:cc="http://creativecommons.org/ns#" xmlns:dc="http://purl.org/dc/elements/1.1/" xmlns:rdf="http://www.w3.org/1999/02/22-rdf-syntax-ns#">
 <title>Choose theme</title>
 <g stroke-width=".58331">
  <path d="m34.998 0.58331a0.58331 0.58331 0 0 0 0-0.087496 0.58331 0.58331 0 0 0 0-0.081662v-0.046666l-0.04667-0.075829-0.05833-0.064164-0.06415-0.058331-0.07583-0.046666h-0.04667l-0.17499-0.12249h-33.948a0.58331 0.58331 0 0 0-0.58331 0.58331v33.832a0.90412 0.90412 0 0 0 0.034998 0.16916v0.04668l0.046664 0.07583 0.058331 0.06415 0.064164 0.05833 0.075829 0.04667h0.046664a0.58331 0.58331 0 0 0 0.25665 0.1225h33.832a0.58331 0.58331 0 0 0 0.5833-0.58331v-33.832zm-3.7623 27.555a6.9997 6.9997 0 1 1-7.3205-10.995 0.58331 0.58331 0 0 1 0.58331 0.93912 5.8331 5.8331 0 0 0 6.1072 9.1579 0.58331 0.58331 0 0 1 0.58331 0.91579zm-30.069 4.8706v-31.843h31.843z"/>
  <circle cx="10.5" cy="10.5" r="2.9165"/>
  <path d="m10.5 6.4164a0.58331 0.58331 0 0 1-0.58331-0.58331v-1.7499a0.58331 0.58331 0 0 1 1.1666 0v1.7499a0.58331 0.58331 0 0 1-0.58331 0.58331z"/>
  <path d="m7.198 7.7813a0.58331 0.58331 0 0 1-0.41415-0.16916l-1.2366-1.2366a0.58331 0.58331 0 0 1 0.82246-0.82246l1.2366 1.2366a0.58331 0.58331 0 0 1-0.41415 0.99745z"/>
  <path d="m5.8331 11.083h-1.7499a0.58331 0.58331 0 0 1 0-1.1666h1.7499a0.58331 0.58331 0 0 1 0 1.1666z"/>
  <path d="m5.9614 15.621a0.58331 0.58331 0 0 1-0.41415-0.99745l1.2424-1.2074a0.58331 0.58331 0 0 1 0.82246 0.82246l-1.2366 1.2366a0.58331 0.58331 0 0 1-0.41415 0.14583z"/>
  <path d="m10.5 17.499a0.58331 0.58331 0 0 1-0.58331-0.58331v-1.7499a0.58331 0.58331 0 0 1 1.1666 0v1.7499a0.58331 0.58331 0 0 1-0.58331 0.58331z"/>
  <path d="m15.038 15.621a0.58331 0.58331 0 0 1-0.41415-0.16916l-1.2366-1.2366a0.58331 0.58331 0 0 1 0.82246-0.79913l1.2366 1.2366a0.58331 0.58331 0 0 1-0.41415 0.99745z"/>
  <path d="m16.916 11.083h-1.7499a0.58331 0.58331 0 0 1 0-1.1666h1.7499a0.58331 0.58331 0 0 1 0 1.1666z"/>
  <path d="m13.801 7.7813a0.58331 0.58331 0 0 1-0.41415-0.99745l1.2366-1.2366a0.58331 0.58331 0 0 1 0.82246 0.82246l-1.2366 1.2133a0.58331 0.58331 0 0 1-0.40832 0.19832z"/>
 </g>
 <metadata>
  <rdf:RDF>
   <cc:Work rdf:about="">
    <dc:title>Choose theme</dc:title>
   </cc:Work>
  </rdf:RDF>
 </metadata>
</svg>
