<?xml version="1.0" encoding="UTF-8"?>
<svg width="37.795" height="36.175" version="1.1" viewBox="0 0 37.795 36.175" xml:space="preserve" xmlns="http://www.w3.org/2000/svg"><path d="m37.71 13.687c-0.24181-0.7738-1.0156-1.3542-1.8378-1.3542h-11.559l-3.5788-10.978c-0.24181-0.7738-1.0156-1.3542-1.8378-1.3542-0.82217 0-1.596 0.53199-1.8378 1.3542l-3.5788 10.978h-11.559c-0.82217 0-1.596 0.53199-1.8378 1.3542-0.24181 0.7738 0.048363 1.6927 0.72544 2.1763l9.334 6.7708-3.5788 10.978c-0.24181 0.7738 0.048365 1.6927 0.72544 2.1763 0.67708 0.48363 1.596 0.48363 2.273 0l9.334-6.7708 9.334 6.7708c0.33854 0.24181 0.72544 0.3869 1.1607 0.3869 0.43526 0 0.82217-0.14509 1.1607-0.3869 0.67708-0.48363 0.96725-1.3542 0.72544-2.1763l-3.5788-10.978 9.334-6.7708c0.62871-0.53199 0.91889-1.4025 0.67708-2.1763z" stroke-width=".48363"/></svg>
