<?xml version="1.0" encoding="UTF-8"?>
<svg width="30" height="29.26" fill="none" version="1.1" viewBox="0 0 30 29.26" xmlns="http://www.w3.org/2000/svg">
 <path d="m15 0c-8.2875 0-15 6.7125-15 15 0 6.6375 4.2938 12.244 10.256 14.231 0.75 0.13125 1.0312-0.31875 1.0312-0.7125 0-0.35625-0.01875-1.5375-0.01875-2.7938-3.7688 0.69375-4.7438-0.91875-5.0438-1.7625-0.16875-0.43125-0.9-1.7625-1.5375-2.1188-0.525-0.28125-1.275-0.975-0.01875-0.99375 1.1812-0.01875 2.025 1.0875 2.3062 1.5375 1.35 2.2688 3.5062 1.6312 4.3688 1.2375 0.13125-0.975 0.525-1.6312 0.95625-2.0062-3.3375-0.375-6.825-1.6688-6.825-7.4062 0-1.6312 0.58125-2.9812 1.5375-4.0312-0.15-0.375-0.675-1.9125 0.15-3.975 0 0 1.2562-0.39375 4.125 1.5375 1.2-0.3375 2.475-0.50625 3.75-0.50625s2.55 0.16875 3.75 0.50625c2.8688-1.95 4.125-1.5375 4.125-1.5375 0.825 2.0625 0.3 3.6 0.15 3.975 0.95625 1.05 1.5375 2.3812 1.5375 4.0312 0 5.7562-3.5062 7.0312-6.8438 7.4062 0.54375 0.46875 1.0125 1.3688 1.0125 2.775 0 2.0062-0.01875 3.6188-0.01875 4.125 0 0.39375 0.28125 0.8625 1.0312 0.7125 5.925-1.9875 10.219-7.6125 10.219-14.231 0-8.2875-6.7125-15-15-15z" clip-rule="evenodd" fill="#1b1f23" fill-rule="evenodd" stroke-width="1.875"/>
</svg>
