<?xml version="1.0" encoding="UTF-8"?>
<svg width="30" height="30" clip-rule="evenodd" fill-rule="evenodd" stroke-linejoin="round" stroke-miterlimit="1.4142" version="1.1" xml:space="preserve" xmlns="http://www.w3.org/2000/svg">
    <g id="Artwork" transform="translate(-14.043 -10.043)">
        
        <g transform="matrix(.33365 0 0 .33365 9.3575 6.6921)">
            <circle cx="59" cy="55" r="44.957" fill="#ff4500"/>
            <path d="m88.989 55c0-3.648-2.95-6.545-6.545-6.545-1.77 0-3.38 0.697-4.56 1.824-4.506-3.219-10.676-5.311-17.543-5.579l3.004-14.056 9.764 2.092c0.108 2.468 2.146 4.453 4.668 4.453 2.575 0 4.667-2.092 4.667-4.668 0-2.575-2.092-4.667-4.667-4.667-1.824 0-3.434 1.073-4.185 2.629l-10.89-2.307c-0.322-0.054-0.644 0-0.859 0.161-0.268 0.161-0.429 0.429-0.482 0.751l-3.327 15.665c-6.974 0.215-13.251 2.307-17.811 5.58-1.18-1.127-2.79-1.824-4.56-1.824-3.648 0-6.545 2.95-6.545 6.545 0 2.682 1.609 4.935 3.863 5.955-0.108 0.643-0.161 1.287-0.161 1.985 0 10.085 11.749 18.294 26.234 18.294s26.234-8.155 26.234-18.294c0-0.644-0.054-1.342-0.161-1.985 2.253-1.02 3.862-3.327 3.862-6.009zm-44.957 4.667c0-2.575 2.092-4.667 4.668-4.667 2.575 0 4.667 2.092 4.667 4.667s-2.092 4.668-4.667 4.668c-2.576 0.053-4.668-2.093-4.668-4.668zm26.127 12.393c-3.219 3.219-9.335 3.434-11.105 3.434-1.824 0-7.94-0.269-11.106-3.434-0.482-0.483-0.482-1.234 0-1.717 0.483-0.482 1.234-0.482 1.717 0 2.039 2.039 6.331 2.736 9.389 2.736s7.403-0.697 9.388-2.736c0.483-0.482 1.234-0.482 1.717 0 0.429 0.483 0.429 1.234 0 1.717zm-0.859-7.672c-2.575 0-4.667-2.092-4.667-4.667s2.092-4.667 4.667-4.667c2.576 0 4.668 2.092 4.668 4.667 0 2.521-2.092 4.667-4.668 4.667z" fill="#fff" fill-rule="nonzero"/>
        </g>
    </g>
</svg>
