<?xml version="1.0" encoding="UTF-8"?>
<svg width="30" height="30" version="1.1" viewBox="0 0 30 30" xmlns="http://www.w3.org/2000/svg">
 <defs>
  <linearGradient id="a" x1="46" x2="29" y1="11" y2="52" gradientUnits="userSpaceOnUse">
   <stop stop-color="#2aabee" offset="0"/>
   <stop stop-color="#229ed9" offset="1"/>
  </linearGradient>
 </defs>
 <g transform="scale(.43353)">
  <circle cx="34.6" cy="34.6" r="34.6" fill="url(#a)"/>
  <path d="m47.8 20.5s3.6-1.4 3.3 2c-0.1 1.4-1 6.3-1.7 11.6l-2.4 15.7s-0.2 2.3-2 2.7-4.5-1.4-5-1.8c-0.4-0.3-7.5-4.8-10-7-0.7-0.6-1.5-1.8 0.1-3.2l10.5-10c1.2-1.2 2.4-4-2.6-0.6l-14 9.5s-1.6 1-4.6 0.1l-6.5-2s-2.4-1.5 1.7-3c10-4.7 22.3-9.5 33.2-14z" fill="#fff"/>
 </g>
</svg>
